<?xml version="1.0" encoding="UTF-8"?>
<svg xmlns="http://www.w3.org/2000/svg" xmlns:xlink="http://www.w3.org/1999/xlink" viewBox="0 0 50 50" width="50px" height="50px">
<g id="surface58867933">
<path style=" stroke:none;fill-rule:nonzero;fill:rgb(0%,0%,0%);fill-opacity:1;" d="M 5.375 2 C 5.40625 2 44.5 2 44.53125 2 C 44.8125 2 45.082031 2.117188 45.273438 2.324219 C 45.464844 2.535156 45.558594 2.8125 45.53125 3.09375 L 43.261719 28.453125 C 42.625 28.273438 41.972656 28.144531 41.300781 28.070312 L 43.4375 4 L 6.5625 4 L 9.90625 41.65625 L 25 45.9375 L 29.007812 44.800781 C 29.289062 45.433594 29.621094 46.042969 30 46.613281 L 25.28125 47.96875 C 25.097656 48.023438 24.902344 48.023438 24.71875 47.96875 L 8.71875 43.375 C 8.332031 43.265625 8.046875 42.933594 8 42.53125 L 4.46875 3.09375 C 4.410156 2.574219 4.765625 2.09375 5.28125 2 C 5.3125 2 5.34375 2 5.375 2 Z M 12.71875 10.0625 L 37.28125 10.0625 C 37.5625 10.0625 37.832031 10.179688 38.023438 10.386719 C 38.214844 10.597656 38.308594 10.875 38.28125 11.15625 L 37.84375 16 C 37.796875 16.515625 37.363281 16.910156 36.84375 16.90625 L 19.125 16.90625 L 19.375 20 L 36.40625 20 C 36.683594 20.007812 36.945312 20.128906 37.128906 20.335938 C 37.3125 20.542969 37.402344 20.816406 37.375 21.09375 L 36.730469 28.453125 C 36.011719 28.660156 35.320312 28.929688 34.664062 29.261719 L 35.3125 22 L 18.46875 22 C 17.964844 21.988281 17.546875 21.597656 17.5 21.09375 L 17.03125 16 C 17.003906 15.71875 17.097656 15.441406 17.289062 15.230469 C 17.480469 15.023438 17.75 14.90625 18.03125 14.90625 L 35.9375 14.90625 L 36.1875 12.0625 L 13.8125 12.0625 L 14.9375 24.875 L 31.09375 24.875 C 31.371094 24.875 31.632812 24.988281 31.824219 25.191406 C 32.011719 25.390625 32.109375 25.660156 32.09375 25.9375 L 31.582031 31.464844 C 30.976562 32.066406 30.433594 32.726562 29.964844 33.441406 L 25.25 34.4375 C 25.117188 34.464844 24.976562 34.464844 24.84375 34.4375 L 19.28125 33.28125 C 18.847656 33.183594 18.53125 32.816406 18.5 32.375 L 18.375 30.90625 L 15.5 30.90625 L 15.875 35.28125 L 25 38.03125 L 28.378906 37.011719 C 28.195312 37.726562 28.074219 38.46875 28.023438 39.226562 L 25.28125 40.0625 C 25.097656 40.117188 24.902344 40.117188 24.71875 40.0625 L 24.59375 40.03125 L 14.65625 37 C 14.269531 36.875 14 36.527344 13.96875 36.125 L 13.40625 30 C 13.378906 29.71875 13.472656 29.441406 13.664062 29.230469 C 13.855469 29.023438 14.125 28.90625 14.40625 28.90625 L 19.28125 28.90625 C 19.808594 28.90625 20.25 29.316406 20.28125 29.84375 L 20.4375 31.46875 L 25.03125 32.4375 L 29.5625 31.46875 L 30 26.875 L 14.03125 26.875 C 13.515625 26.859375 13.09375 26.453125 13.0625 25.9375 L 11.71875 11.15625 C 11.660156 10.636719 12.015625 10.15625 12.53125 10.0625 C 12.59375 10.054688 12.65625 10.054688 12.71875 10.0625 Z M 12.71875 10.0625 "/>
<path style=" stroke:none;fill-rule:nonzero;fill:rgb(80.000001%,80.000001%,80.000001%);fill-opacity:1;" d="M 45.898438 40 C 45.898438 40.601562 45.5 41 44.898438 41 L 41 41 L 41 44.898438 C 41 45.5 40.601562 45.898438 40 45.898438 C 39.398438 45.898438 39 45.5 39 44.898438 L 39 41 L 35.101562 41 C 34.5 41 34.101562 40.601562 34.101562 40 C 34.101562 39.398438 34.5 39 35.101562 39 L 39 39 L 39 35.101562 C 39 34.5 39.398438 34.101562 40 34.101562 C 40.601562 34.101562 41 34.5 41 35.101562 L 41 39 L 44.898438 39 C 45.5 39 45.898438 39.398438 45.898438 40 Z M 50 40 C 50 45.5 45.5 50 40 50 C 34.5 50 30 45.5 30 40 C 30 34.5 34.5 30 40 30 C 45.5 30 50 34.5 50 40 Z M 48 40 C 48 35.601562 44.398438 32 40 32 C 35.601562 32 32 35.601562 32 40 C 32 44.398438 35.601562 48 40 48 C 44.398438 48 48 44.398438 48 40 Z M 48 40 "/>
</g>
</svg>
